<svg width="618" height="100" viewBox="0 0 618 100" fill="none" xmlns="http://www.w3.org/2000/svg">
<path d="M81.7654 16.5134C80.6333 21.0376 76.048 23.7875 71.5239 22.6554C66.9997 21.5234 64.2498 16.9381 65.3819 12.4139C66.5139 7.88974 71.0992 5.13988 75.6234 6.27193C80.1476 7.40399 82.8974 11.9893 81.7654 16.5134Z" fill="#897BB1"/>
<path d="M50.803 12.2913C49.6709 16.8155 45.0856 19.5653 40.5614 18.4333C36.0373 17.3012 33.2874 12.7159 34.4195 8.19174C35.5515 3.66757 40.1368 0.917711 44.661 2.04977C49.1852 3.18182 51.935 7.7671 50.803 12.2913Z" fill="#897BB1"/>
<path d="M26.1738 36.9204C25.0418 41.4446 20.4565 44.1945 15.9323 43.0624C11.4081 41.9303 8.65827 37.3451 9.79032 32.8209C10.9224 28.2967 15.5077 25.5469 20.0318 26.6789C24.556 27.811 27.3059 32.3963 26.1738 36.9204Z" fill="#897BB1"/>
<path d="M18.4333 69.994C17.3013 74.5182 12.716 77.2681 8.19182 76.136C3.66764 75.004 0.917789 70.4187 2.04984 65.8945C3.1819 61.3703 7.76718 58.6205 12.2914 59.7525C16.8155 60.8846 19.5654 65.4699 18.4333 69.994Z" fill="#897BB1"/>
<path d="M42.3586 88.9937C41.2266 93.5178 36.6413 96.2677 32.1171 95.1356C27.5929 94.0036 24.8431 89.4183 25.9751 84.8941C27.1072 80.37 31.6925 77.6201 36.2166 78.7522C40.7408 79.8842 43.4907 84.4695 42.3586 88.9937Z" fill="#897BB1"/>
<path d="M81.0617 91.8082C79.9297 96.3324 75.3444 99.0823 70.8202 97.9502C66.2961 96.8182 63.5462 92.2329 64.6783 87.7087C65.8103 83.1845 70.3956 80.4347 74.9198 81.5667C79.4439 82.6988 82.1938 87.2841 81.0617 91.8082Z" fill="#897BB1"/>
<path fill-rule="evenodd" clip-rule="evenodd" d="M48.575 30.9623L42.9251 12.6664L44.9421 12.0435L50.5921 30.3394L48.575 30.9623Z" fill="#897BB1"/>
<path fill-rule="evenodd" clip-rule="evenodd" d="M32.3699 85.1468L18.2961 38.7032L20.3164 38.0909L34.3902 84.5346L32.3699 85.1468Z" fill="#897BB1"/>
<path fill-rule="evenodd" clip-rule="evenodd" d="M77.6415 92.3018L34.4808 87.2579L34.7258 85.1611L77.8865 90.205L77.6415 92.3018Z" fill="#897BB1"/>
<path fill-rule="evenodd" clip-rule="evenodd" d="M32.3697 87.2578L11.9626 68.2581L13.4011 66.713L33.8082 85.7127L32.3697 87.2578Z" fill="#897BB1"/>
<path fill-rule="evenodd" clip-rule="evenodd" d="M10.5555 62.8765L16.365 30.9624L18.4419 31.3405L12.6324 63.2546L10.5555 62.8765Z" fill="#897BB1"/>
<path fill-rule="evenodd" clip-rule="evenodd" d="M75.2949 14.7777L44.3324 10.5556L44.6177 8.46387L75.5801 12.686L75.2949 14.7777Z" fill="#897BB1"/>
<path fill-rule="evenodd" clip-rule="evenodd" d="M75.2948 10.5554L10.5551 65.4434L9.18994 63.8331L73.9296 8.94518L75.2948 10.5554Z" fill="#897BB1"/>
<path fill-rule="evenodd" clip-rule="evenodd" d="M18.296 32.3697L40.8141 10.5553L42.283 12.0715L19.7648 33.886L18.296 32.3697Z" fill="#897BB1"/>
<path fill-rule="evenodd" clip-rule="evenodd" d="M33.7772 87.2576L48.1137 72.2111L49.6421 73.6674L35.3056 88.7139L33.7772 87.2576Z" fill="#897BB1"/>
<path fill-rule="evenodd" clip-rule="evenodd" d="M76.9519 96.1111L66.8711 69.6654L68.8438 68.9135L78.9246 95.3591L76.9519 96.1111Z" fill="#897BB1"/>
<path fill-rule="evenodd" clip-rule="evenodd" d="M38.8988 65.5531L10.5553 66.8507L10.4587 64.7418L38.8023 63.4443L38.8988 65.5531Z" fill="#897BB1"/>
<path fill-rule="evenodd" clip-rule="evenodd" d="M66.8711 30.9626L71.7765 18.9998L73.7297 19.8008L68.8243 31.7635L66.8711 30.9626Z" fill="#897BB1"/>
<path d="M26.1738 36.9204C25.0418 41.4446 20.4565 44.1945 15.9323 43.0624C11.4081 41.9303 8.65827 37.3451 9.79032 32.8209C10.9224 28.2967 15.5077 25.5469 20.0318 26.6789C24.556 27.811 27.3059 32.3963 26.1738 36.9204Z" fill="#897BB1"/>
<path d="M18.4333 69.994C17.3013 74.5182 12.716 77.2681 8.19182 76.136C3.66764 75.004 0.917789 70.4187 2.04984 65.8945C3.1819 61.3703 7.76718 58.6205 12.2914 59.7525C16.8155 60.8846 19.5654 65.4699 18.4333 69.994Z" fill="#5755AB"/>
<path d="M42.3586 88.9937C41.2266 93.5178 36.6413 96.2677 32.1171 95.1356C27.5929 94.0036 24.8431 89.4183 25.9751 84.8941C27.1072 80.37 31.6925 77.6201 36.2166 78.7522C40.7408 79.8842 43.4907 84.4695 42.3586 88.9937Z" fill="#262FA5"/>
<path d="M81.0617 91.8082C79.9297 96.3324 75.3444 99.0823 70.8202 97.9502C66.2961 96.8182 63.5462 92.2329 64.6783 87.7087C65.8103 83.1845 70.3956 80.4347 74.9198 81.5667C79.4439 82.6988 82.1938 87.2841 81.0617 91.8082Z" fill="#262FA5"/>
<path fill-rule="evenodd" clip-rule="evenodd" d="M48.575 30.9623L42.9251 12.6664L44.9421 12.0435L50.5921 30.3394L48.575 30.9623Z" fill="#897BB1"/>
<path fill-rule="evenodd" clip-rule="evenodd" d="M32.3699 85.1468L18.2961 38.7032L20.3164 38.0909L34.3902 84.5346L32.3699 85.1468Z" fill="url(#paint0_linear_24_271)"/>
<path fill-rule="evenodd" clip-rule="evenodd" d="M77.6415 92.3018L34.4808 87.2579L34.7258 85.1611L77.8865 90.205L77.6415 92.3018Z" fill="#262FA5"/>
<path fill-rule="evenodd" clip-rule="evenodd" d="M32.3697 87.2578L11.9626 68.2581L13.4011 66.713L33.8082 85.7127L32.3697 87.2578Z" fill="url(#paint1_linear_24_271)"/>
<path fill-rule="evenodd" clip-rule="evenodd" d="M10.5555 62.8765L16.365 30.9624L18.4419 31.3405L12.6324 63.2546L10.5555 62.8765Z" fill="url(#paint2_linear_24_271)"/>
<path fill-rule="evenodd" clip-rule="evenodd" d="M75.2948 10.5554L10.5551 65.4434L9.18994 63.8331L73.9296 8.94518L75.2948 10.5554Z" fill="url(#paint3_linear_24_271)"/>
<path fill-rule="evenodd" clip-rule="evenodd" d="M18.296 32.3697L40.8141 10.5553L42.283 12.0715L19.7648 33.886L18.296 32.3697Z" fill="#897BB1"/>
<path fill-rule="evenodd" clip-rule="evenodd" d="M33.7772 87.2576L48.1137 72.2111L49.6421 73.6674L35.3056 88.7139L33.7772 87.2576Z" fill="url(#paint4_linear_24_271)"/>
<path fill-rule="evenodd" clip-rule="evenodd" d="M76.9519 96.1111L66.8711 69.6654L68.8438 68.9135L78.9246 95.3591L76.9519 96.1111Z" fill="url(#paint5_linear_24_271)"/>
<path fill-rule="evenodd" clip-rule="evenodd" d="M38.8988 65.5531L10.5553 66.8507L10.4587 64.7418L38.8023 63.4443L38.8988 65.5531Z" fill="url(#paint6_linear_24_271)"/>
<path fill-rule="evenodd" clip-rule="evenodd" d="M66.8711 30.9626L71.7765 18.9998L73.7297 19.8008L68.8243 31.7635L66.8711 30.9626Z" fill="#897BB1"/>
<path d="M71.28 69.6215C66.9039 74.1735 61.3183 76.4495 54.5233 76.4495C48.1241 76.4495 42.8684 74.5034 38.7562 70.6111C36.7111 68.6539 35.1058 66.0921 33.9403 62.9255C32.7968 59.7369 32.2251 55.8775 32.2251 51.3475C32.2251 46.7955 33.2916 42.5954 35.4247 38.747C37.5578 34.8987 40.5484 31.919 44.3968 29.808C48.2671 27.6969 52.5662 26.6414 57.2941 26.6414C62.044 26.6414 66.3431 27.543 70.1915 29.3462C70.5873 29.83 70.7852 30.4457 70.7852 31.1934C70.7852 31.919 70.7852 32.3918 70.7852 32.6117L70.3234 39.9015C69.1139 40.7152 67.9374 41.122 66.7939 41.122C65.6724 41.122 64.7818 40.9571 64.1221 40.6272C63.4624 40.2754 62.9786 39.7916 62.6707 39.1759C62.143 38.1203 61.8791 37.0648 61.8791 36.0092C61.8791 34.9317 61.9011 33.9751 61.9451 33.1395C60.7136 32.2379 59.0753 31.7871 57.0302 31.7871C55.0071 31.7871 53.3688 31.996 52.1154 32.4138C50.8839 32.8096 49.7184 33.4694 48.6189 34.393C47.5194 35.3166 46.5848 36.471 45.8151 37.8564C44.1439 40.8691 43.3082 44.9703 43.3082 50.16C43.3082 56.7132 44.7376 61.749 47.5964 65.2674C50.4771 68.7639 54.2045 70.5121 58.7785 70.5121C62.099 70.5121 65.3866 69.1157 68.6411 66.323C69.9166 66.9387 70.7962 68.0382 71.28 69.6215Z" fill="url(#paint7_linear_24_271)"/>
<path d="M105.952 56.6582L105.754 67.7413C105.754 67.8513 105.754 67.9612 105.754 68.0712C105.754 69.2807 106.326 69.8854 107.469 69.8854C108.349 69.8854 109.283 69.5995 110.273 69.0278C110.581 69.2917 110.867 69.6655 111.13 70.1493C111.416 70.6111 111.581 70.9739 111.625 71.2378C108.898 74.7123 106.062 76.4495 103.115 76.4495C100.19 76.4495 98.1452 75.0092 96.9797 72.1284C94.9566 73.5358 92.8895 74.6023 90.7784 75.328C88.6893 76.0757 86.8861 76.4495 85.3688 76.4495C83.8734 76.4495 82.477 76.2846 81.1796 75.9547C79.9042 75.6249 78.7167 75.0971 77.6172 74.3714C75.2422 72.8321 74.0547 70.2922 74.0547 66.7518C74.0547 64.8606 74.5715 63.2113 75.605 61.8039C76.6606 60.3746 78.0899 59.2531 79.8932 58.4394C83.3456 56.8781 87.4688 56.0315 92.2627 55.8995L96.0891 55.7676C96.243 53.9864 96.32 52.579 96.32 51.5454C96.32 49.2145 95.8692 47.4552 94.9675 46.2678C94.0879 45.0803 92.4387 44.4865 90.0197 44.4865C88.5684 44.4865 87.4359 44.9923 86.6222 46.0039C85.8306 47.0154 85.4347 48.5108 85.4347 50.4899C85.4347 50.7538 85.0609 51.0726 84.3132 51.4465C83.0598 52.0402 81.8063 52.3371 80.5529 52.3371C79.3214 52.3371 78.3318 51.9852 77.5842 51.2816C76.8585 50.5779 76.4956 49.5883 76.4956 48.3129C76.4956 47.0374 76.9574 45.8389 77.881 44.7174C78.8046 43.5959 80.0361 42.7273 81.5754 42.1116C84.6321 40.9021 88.1175 40.2974 92.0318 40.2974C96.122 40.2974 99.1127 40.9461 101.004 42.2435C102.719 43.387 103.94 45.0253 104.665 47.1584C105.523 49.6433 105.952 52.8099 105.952 56.6582ZM96.0891 68.6649C95.8032 67.0596 95.6602 65.6742 95.6602 64.5088C95.6602 63.3213 95.6932 61.672 95.7592 59.5609L91.1742 59.7588C88.8212 59.7588 87.007 60.3306 85.7316 61.4741C84.4562 62.6176 83.8184 64.047 83.8184 65.7622C83.8184 67.4775 84.1923 68.7089 84.9399 69.4566C85.6876 70.2043 87.194 70.5781 89.459 70.5781C91.746 70.5781 93.956 69.9404 96.0891 68.6649Z" fill="url(#paint8_linear_24_271)"/>
<path d="M115.258 64.8056C115.763 64.7177 116.489 64.6737 117.435 64.6737C118.402 64.6737 119.678 65.0585 121.261 65.8282C121.239 66.0041 121.228 66.334 121.228 66.8177C121.228 67.3015 121.338 67.8953 121.558 68.599C121.8 69.3027 122.163 69.9514 122.646 70.5451C123.702 71.8645 125.439 72.5242 127.858 72.5242C130.277 72.5242 131.86 71.7106 132.608 70.0833C133.246 68.588 133.136 67.0377 132.278 65.4324C131.64 64.2449 129.936 63.1124 127.165 62.0348C126.704 61.8589 126.066 61.617 125.252 61.3092C117.951 58.6923 114.257 54.91 114.169 49.9621C114.169 47.7191 114.796 45.8279 116.049 44.2886C118.424 41.4079 122.437 39.9675 128.089 39.9675C131.805 39.9675 134.939 40.7372 137.49 42.2765C140.063 43.8158 141.349 45.707 141.349 47.95C141.349 50.4569 140.129 51.7104 137.688 51.7104C135.951 51.7104 134.73 51.5234 134.026 51.1496C133.323 50.7538 132.971 50.5339 132.971 50.4899C132.971 50.358 132.971 50.237 132.971 50.1271C132.971 46.0149 130.97 43.9588 126.967 43.9588C125.582 43.9588 124.483 44.3216 123.669 45.0473C122.877 45.751 122.481 46.7955 122.481 48.1809C122.481 49.5443 122.965 50.6768 123.933 51.5784C124.922 52.48 126.814 53.4916 129.606 54.6131C132.421 55.7346 134.224 56.4933 135.016 56.8891C139.964 59.286 142.438 62.3867 142.438 66.191C142.438 69.4896 141.041 72.0295 138.249 73.8107C135.478 75.5699 131.783 76.4495 127.165 76.4495C124.109 76.4495 121.8 76.1856 120.238 75.6579C118.677 75.1301 117.49 74.6463 116.676 74.2065C115.884 73.7667 115.225 73.3049 114.697 72.8211C114.191 72.3373 113.762 71.8315 113.41 71.3038C112.465 69.9184 112.19 68.511 112.586 67.0816C112.916 65.8722 113.806 65.1135 115.258 64.8056Z" fill="url(#paint9_linear_24_271)"/>
<path d="M154.811 61.0453C155.471 64.2999 156.878 66.9277 159.033 68.9288C161.188 70.9299 163.706 71.9305 166.587 71.9305C169.468 71.9305 172.371 70.688 175.295 68.2031C176.395 68.9288 177.065 69.7864 177.307 70.776C175.284 73.129 172.294 74.8112 168.335 75.8228C166.73 76.2406 164.872 76.4495 162.761 76.4495C160.672 76.4495 158.506 76.0647 156.263 75.295C154.02 74.5474 152.007 73.4478 150.226 71.9965C148.467 70.5451 147.071 68.6429 146.037 66.29C145.004 63.915 144.487 61.2872 144.487 58.4064C144.487 55.5257 145.015 52.9198 146.07 50.5889C147.126 48.2359 148.522 46.3117 150.259 44.8164C153.888 41.6718 158.044 40.0995 162.728 40.0995C166.84 40.0995 170.402 41.21 173.415 43.431C174.866 44.5305 176.021 45.9599 176.879 47.7191C177.758 49.4564 178.198 51.4245 178.198 53.6235C178.198 57.3839 176.956 59.363 174.471 59.5609L154.811 61.0453ZM169.325 52.634C169.325 50.0171 168.599 47.972 167.148 46.4987C165.696 45.0253 163.794 44.2886 161.441 44.2886C159.088 44.2886 157.307 45.3991 156.098 47.6202C154.888 49.8192 154.283 52.8759 154.283 56.7901C159.759 56.1964 164.707 55.5697 169.127 54.91C169.259 54.1183 169.325 53.3596 169.325 52.634Z" fill="url(#paint10_linear_24_271)"/>
<path d="M201.131 65.8282L201.065 38.2193C201.065 35.4485 200.262 33.6673 198.657 32.8756C198.459 32.7657 198.14 32.6447 197.7 32.5128C197.283 32.3808 197.03 32.2929 196.942 32.2489C196.612 31.8091 196.447 31.0944 196.447 30.1048C196.447 29.0933 196.48 28.3896 196.546 27.9938C199.229 27.444 201.923 27.1691 204.627 27.1691C207.354 27.1691 209.135 27.2021 209.971 27.2681C210.829 27.3121 211.29 27.356 211.356 27.4C211.664 27.532 211.796 27.9828 211.752 28.7524L211.257 41.5838V65.1025C211.257 66.5759 211.312 67.6754 211.422 68.4011C211.532 69.1267 211.774 69.6875 212.148 70.0833C213.621 69.9734 215.842 69.8194 218.811 69.6215C221.78 69.4236 224.111 69.2477 225.804 69.0938L226.266 64.9706C226.552 64.5527 227.079 64.1679 227.849 63.8161C228.619 63.4422 229.575 63.2553 230.719 63.2553C231.884 63.2553 232.786 63.5852 233.424 64.2449C234.545 65.4104 235.106 67.9942 235.106 71.9965C235.106 73.6897 234.908 74.7673 234.512 75.2291C232.621 75.273 224.199 75.295 209.245 75.295H202.813C202.373 75.1411 201.977 74.6023 201.626 73.6787C201.296 72.7332 201.131 71.4247 201.131 69.7535V65.8282Z" fill="url(#paint11_linear_24_271)"/>
<path d="M268.425 56.6582L268.227 67.7413C268.227 67.8513 268.227 67.9612 268.227 68.0712C268.227 69.2807 268.799 69.8854 269.943 69.8854C270.822 69.8854 271.757 69.5995 272.746 69.0278C273.054 69.2917 273.34 69.6655 273.604 70.1493C273.89 70.6111 274.055 70.9739 274.099 71.2378C271.372 74.7123 268.535 76.4495 265.589 76.4495C262.664 76.4495 260.619 75.0092 259.453 72.1284C257.43 73.5358 255.363 74.6023 253.252 75.328C251.163 76.0757 249.36 76.4495 247.842 76.4495C246.347 76.4495 244.951 76.2846 243.653 75.9547C242.378 75.6249 241.19 75.0971 240.091 74.3714C237.716 72.8321 236.528 70.2922 236.528 66.7518C236.528 64.8606 237.045 63.2113 238.079 61.8039C239.134 60.3746 240.564 59.2531 242.367 58.4394C245.819 56.8781 249.942 56.0315 254.736 55.8995L258.563 55.7676C258.717 53.9864 258.794 52.579 258.794 51.5454C258.794 49.2145 258.343 47.4552 257.441 46.2678C256.562 45.0803 254.912 44.4865 252.493 44.4865C251.042 44.4865 249.909 44.9923 249.096 46.0039C248.304 47.0154 247.908 48.5108 247.908 50.4899C247.908 50.7538 247.534 51.0726 246.787 51.4465C245.533 52.0402 244.28 52.3371 243.026 52.3371C241.795 52.3371 240.805 51.9852 240.058 51.2816C239.332 50.5779 238.969 49.5883 238.969 48.3129C238.969 47.0374 239.431 45.8389 240.355 44.7174C241.278 43.5959 242.51 42.7273 244.049 42.1116C247.106 40.9021 250.591 40.2974 254.505 40.2974C258.596 40.2974 261.586 40.9461 263.477 42.2435C265.193 43.387 266.413 45.0253 267.139 47.1584C267.996 49.6433 268.425 52.8099 268.425 56.6582ZM258.563 68.6649C258.277 67.0596 258.134 65.6742 258.134 64.5088C258.134 63.3213 258.167 61.672 258.233 59.5609L253.648 59.7588C251.295 59.7588 249.481 60.3306 248.205 61.4741C246.93 62.6176 246.292 64.047 246.292 65.7622C246.292 67.4775 246.666 68.7089 247.414 69.4566C248.161 70.2043 249.668 70.5781 251.933 70.5781C254.22 70.5781 256.43 69.9404 258.563 68.6649Z" fill="url(#paint12_linear_24_271)"/>
<path d="M322.69 44.9483C322.734 44.5965 322.756 44.0247 322.756 43.2331C322.756 42.4194 322.559 41.7157 322.163 41.122C322.163 40.9021 322.482 40.7042 323.119 40.5283C323.757 40.3304 324.406 40.2314 325.065 40.2314C327.023 40.2314 328.463 40.8471 329.387 42.0786C330.332 43.31 330.805 44.6405 330.805 46.0698C330.805 47.4992 330.53 48.9836 329.98 50.5229C329.431 52.0622 328.65 53.7225 327.638 55.5037C326.649 57.2849 325.593 59.1101 324.472 60.9793C321.437 65.9931 318.842 71.0619 316.687 76.1856C315.895 76.4935 315.016 76.6474 314.048 76.6474C313.081 76.6474 312.157 76.4605 311.277 76.0867C310.42 75.7128 309.793 75.273 309.397 74.7673C308.386 73.3159 306.451 68.423 303.592 60.0887C302.382 62.2218 300.92 65.1355 299.205 68.8299C297.49 72.5023 296.335 74.9542 295.741 76.1856C294.95 76.4935 294.059 76.6474 293.069 76.6474C292.08 76.6474 291.123 76.4605 290.2 76.0867C289.276 75.7128 288.638 75.295 288.287 74.8332C287.957 74.3714 287.209 72.7002 286.044 69.8194C284.9 66.9387 283.691 63.926 282.415 60.7814C281.162 57.6368 279.754 54.6021 278.193 51.6774C276.632 48.7527 275.323 46.9604 274.268 46.3007C273.916 46.0808 272.849 45.9049 271.068 45.773C270.914 44.6954 270.837 44.0907 270.837 43.9588C270.837 43.8048 270.848 43.6399 270.87 43.464C274.059 41.6828 277.808 40.7922 282.118 40.7922C282.536 40.7922 283.141 40.8141 283.932 40.8581C285.934 42.9032 289.441 52.0842 294.455 68.4011C297.292 62.5516 299.502 57.3729 301.085 52.8649C299.48 48.4228 298.325 45.3881 297.621 43.7609C299.755 42.2655 301.668 41.5178 303.361 41.5178C305.142 41.5178 306.418 42.1116 307.187 43.2991C307.913 44.3766 308.573 46.0259 309.166 48.2469C309.76 50.4679 310.266 52.4031 310.684 54.0523C311.717 58.1865 313.202 62.9694 315.137 68.4011C319.953 54.9869 322.471 47.1694 322.69 44.9483Z" fill="url(#paint13_linear_24_271)"/>
<path d="M379.17 64.014C380.775 64.014 381.918 64.6627 382.6 65.9601C383.282 67.2576 383.623 69.1707 383.623 71.6996C383.623 74.2285 383.447 75.6469 383.095 75.9547C375.31 75.6249 368.174 75.438 361.687 75.394C355.222 75.35 351.077 75.317 349.252 75.295C349.889 70.0393 350.208 64.2339 350.208 57.8787V36.504C350.208 34.5909 349.911 33.3594 349.318 32.8096C349.054 32.5678 348.669 32.3588 348.163 32.1829C347.833 31.7431 347.668 31.0394 347.668 30.0718C347.668 29.0823 347.701 28.3896 347.767 27.9938C349.725 27.9718 352.473 27.9498 356.014 27.9278C359.554 27.9058 362.292 27.8838 364.227 27.8618C369.659 27.7958 375.948 27.6199 383.095 27.334C383.447 27.6419 383.623 29.0603 383.623 31.5892C383.623 34.1181 383.282 36.0312 382.6 37.3287C381.918 38.6261 380.643 39.2748 378.774 39.2748C376.905 39.2748 375.596 38.6921 374.849 37.5266V33.5353C368.427 33.2275 363.315 33.0735 359.51 33.0735C360.06 35.4925 360.335 38.4612 360.335 41.9796C360.335 42.2435 360.335 42.4964 360.335 42.7383V48.8736L374.519 48.1479C374.871 48.5657 375.046 49.4124 375.046 50.6878C375.046 51.9413 374.936 53.2277 374.717 54.5471C373.507 54.723 371.781 54.811 369.538 54.811C367.317 54.811 364.249 54.5911 360.335 54.1513V60.5835C360.335 60.8254 360.335 61.0783 360.335 61.3421C360.335 64.8826 360.06 67.8403 359.51 70.2153C363.315 70.2153 368.427 70.0613 374.849 69.7535V65.7622C375.222 65.0365 376.08 64.5198 377.421 64.2119C377.949 64.0799 378.532 64.014 379.17 64.014Z" fill="url(#paint14_linear_24_271)"/>
<path d="M384.649 44.6185C384.495 43.5629 384.418 42.9912 384.418 42.9032C384.418 42.7053 384.429 42.5184 384.451 42.3425C387.244 41.2869 390.092 40.7592 392.995 40.7592C394.006 40.7592 395.348 40.8581 397.019 41.056C397.525 41.2759 397.997 41.6168 398.437 42.0786C398.877 42.5404 399.405 43.2991 400.02 44.3546C400.658 45.3881 402.22 48.1589 404.704 52.6669C407.343 47.7411 409.234 43.9148 410.378 41.188C412.071 40.7482 413.698 40.5283 415.26 40.5283C416.821 40.5283 418.261 40.7262 419.581 41.122C416.348 46.3557 412.291 51.7543 407.409 57.3179C411.28 63.915 415.403 68.6869 419.779 71.6336C419.779 72.975 419.262 74.0966 418.228 74.9982C417.217 75.8998 415.985 76.3506 414.534 76.3506C414.336 76.3506 413.918 76.3286 413.281 76.2846C412.665 76.2626 411.829 75.9547 410.774 75.361C409.74 74.7893 408.795 74.0966 407.937 73.2829C407.079 72.4473 406.156 71.3368 405.166 69.9514C403.671 67.8623 401.989 65.1795 400.119 61.9029C399.636 62.7385 398.646 64.7067 397.151 67.8073C395.677 70.886 394.435 73.3819 393.423 75.295C391.73 75.7348 390.103 75.9547 388.542 75.9547C387.002 75.9547 385.573 75.7568 384.253 75.361C385.529 73.03 387.695 69.8634 390.752 65.8612C393.83 61.8589 396.095 59.0332 397.547 57.3839C394.314 51.7543 391.609 47.994 389.432 46.1028C388.201 45.1133 386.606 44.6185 384.649 44.6185Z" fill="url(#paint15_linear_24_271)"/>
<path d="M424.896 96.7027C425.335 92.3266 425.555 84.7509 425.555 73.9756C425.555 63.1783 425.247 54.811 424.632 48.8736C424.5 46.6086 423.257 45.3771 420.904 45.1792C420.882 45.0473 420.849 44.8934 420.805 44.7174C420.783 44.5195 420.761 44.3656 420.739 44.2556C420.695 43.9478 420.673 43.6839 420.673 43.464C420.673 43.2441 420.684 43.0462 420.706 42.8702C423.631 41.7487 426.017 41.067 427.864 40.8251C429.711 40.5613 431.053 40.4293 431.888 40.4293C432.746 40.4293 433.274 40.4293 433.472 40.4293C433.978 41.199 434.318 42.6174 434.494 44.6844C436.012 43.2991 437.782 42.1995 439.805 41.3859C441.85 40.5722 443.752 40.1654 445.511 40.1654C447.293 40.1654 448.832 40.3084 450.129 40.5942C451.427 40.8581 452.702 41.3639 453.956 42.1116C455.231 42.8373 456.331 43.7828 457.254 44.9483C459.519 47.8071 460.652 51.8863 460.652 57.186C460.652 59.7149 460.256 62.0678 459.464 64.2449C458.673 66.4219 457.628 68.2581 456.331 69.7535C455.055 71.2488 453.593 72.5242 451.944 73.5798C448.755 75.6249 445.577 76.6474 442.411 76.6474C439.244 76.6474 436.693 76.3286 434.758 75.6909C434.758 79.847 434.714 86.9169 434.626 96.9006C432.625 97.2524 430.822 97.4283 429.217 97.4283C427.633 97.4283 426.193 97.1864 424.896 96.7027ZM434.626 48.2139C434.714 53.7115 434.758 61.4521 434.758 71.4357C436.122 71.9415 437.672 72.1944 439.409 72.1944C441.168 72.1944 442.642 71.9195 443.829 71.3698C445.017 70.798 446.127 69.9624 447.161 68.8629C449.426 66.4219 450.558 62.7385 450.558 57.8127C450.558 52.7329 449.514 49.3024 447.425 47.5212C445.863 46.1798 443.928 45.5091 441.619 45.5091C439.332 45.5091 437.001 46.4107 434.626 48.2139Z" fill="url(#paint16_linear_24_271)"/>
<path d="M465.406 33.2055C465.032 31.0724 463.635 29.8629 461.217 29.5771C461.063 28.4995 460.986 27.8948 460.986 27.7629C460.986 27.6089 460.997 27.444 461.019 27.2681C465.175 25.6408 469.386 24.8271 473.652 24.8271C473.85 24.8271 474.059 24.8271 474.279 24.8271C474.741 25.4209 475.048 26.8063 475.202 28.9833C475.356 31.1384 475.433 36.1742 475.433 44.0907C475.433 51.9852 475.312 62.3867 475.07 75.295C473.619 75.7128 471.882 75.9218 469.859 75.9218C467.836 75.9218 466.263 75.6909 465.142 75.2291C465.538 72.2824 465.736 66.6638 465.736 58.3734C465.736 50.0831 465.626 41.6938 465.406 33.2055Z" fill="url(#paint17_linear_24_271)"/>
<path d="M516.834 57.3509C516.834 60.2316 516.317 62.9364 515.284 65.4653C514.25 67.9942 512.788 70.0613 510.897 71.6666C507.092 74.8992 502.068 76.5155 495.822 76.5155C492.7 76.5155 489.819 75.7788 487.18 74.3055C484.541 72.8321 482.441 70.776 480.88 68.1372C479.319 65.4763 478.538 62.3097 478.538 58.6373C478.538 54.9429 479.483 51.6224 481.375 48.6757C485.091 42.8702 491.325 39.9675 500.077 39.9675C504.476 39.9675 508.335 41.4739 511.655 44.4865C515.108 47.6312 516.834 51.9193 516.834 57.3509ZM488.269 58.3075C488.269 62.0678 489.357 65.3554 491.534 68.1702C493.711 70.9849 496.262 72.3923 499.187 72.3923C504.596 72.3923 507.301 67.9832 507.301 59.1651C507.301 54.789 506.301 51.2376 504.3 48.5108C502.298 45.784 499.748 44.4206 496.647 44.4206C495.086 44.4206 493.733 44.8164 492.59 45.608C491.446 46.3997 490.578 47.4662 489.984 48.8076C488.84 51.3805 488.269 54.5471 488.269 58.3075Z" fill="url(#paint18_linear_24_271)"/>
<path d="M543.029 53.1617C543.029 49.4014 542.171 47.5212 540.456 47.5212C539.202 47.5212 538.004 47.884 536.86 48.6097C535.717 49.3134 534.485 50.303 533.166 51.5784C533.166 53.7775 533.1 61.705 532.968 75.361C530.527 75.7788 528.526 75.9877 526.965 75.9877C525.425 75.9877 524.095 75.7788 522.973 75.361C523.237 71.7106 523.369 65.4543 523.369 56.5922V48.8736C523.369 47.2023 522.786 46.2128 521.621 45.9049C520.829 45.663 519.763 45.4871 518.421 45.3771C518.267 44.7174 518.19 44.2226 518.19 43.8928C518.19 43.5409 518.201 43.2661 518.223 43.0682C521.39 41.2869 525.304 40.3963 529.966 40.3963C530.736 40.3963 531.308 40.4073 531.682 40.4293C532.319 41.5288 532.693 42.6723 532.803 43.8598C532.935 45.0473 533.034 46.1798 533.1 47.2573C536.047 43.6729 538.532 41.4958 540.555 40.7262C541.522 40.3523 542.545 40.1654 543.622 40.1654C545.821 40.1654 547.581 40.7812 548.9 42.0126C550.241 43.2221 550.912 45.0033 550.912 47.3563C550.912 49.1595 550.252 50.6658 548.933 51.8753C547.636 53.0628 546.063 53.6565 544.216 53.6565C543.82 53.6565 543.424 53.6235 543.029 53.5576V53.1617Z" fill="url(#paint19_linear_24_271)"/>
<path d="M561.702 61.0453C562.362 64.2999 563.769 66.9277 565.924 68.9288C568.08 70.9299 570.597 71.9305 573.478 71.9305C576.359 71.9305 579.262 70.688 582.186 68.2031C583.286 68.9288 583.957 69.7864 584.198 70.776C582.175 73.129 579.185 74.8112 575.226 75.8228C573.621 76.2406 571.763 76.4495 569.652 76.4495C567.563 76.4495 565.397 76.0647 563.154 75.295C560.911 74.5474 558.899 73.4478 557.117 71.9965C555.358 70.5451 553.962 68.6429 552.928 66.29C551.895 63.915 551.378 61.2872 551.378 58.4064C551.378 55.5257 551.906 52.9198 552.961 50.5889C554.017 48.2359 555.413 46.3117 557.15 44.8164C560.779 41.6718 564.935 40.0995 569.619 40.0995C573.731 40.0995 577.294 41.21 580.306 43.431C581.758 44.5305 582.912 45.9599 583.77 47.7191C584.649 49.4564 585.089 51.4245 585.089 53.6235C585.089 57.3839 583.847 59.363 581.362 59.5609L561.702 61.0453ZM576.216 52.634C576.216 50.0171 575.49 47.972 574.039 46.4987C572.588 45.0253 570.685 44.2886 568.332 44.2886C565.979 44.2886 564.198 45.3991 562.989 47.6202C561.779 49.8192 561.175 52.8759 561.175 56.7901C566.65 56.1964 571.598 55.5697 576.018 54.91C576.15 54.1183 576.216 53.3596 576.216 52.634Z" fill="url(#paint20_linear_24_271)"/>
<path d="M609.601 53.1617C609.601 49.4014 608.744 47.5212 607.028 47.5212C605.775 47.5212 604.576 47.884 603.433 48.6097C602.289 49.3134 601.058 50.303 599.739 51.5784C599.739 53.7775 599.673 61.705 599.541 75.361C597.1 75.7788 595.099 75.9877 593.537 75.9877C591.998 75.9877 590.668 75.7788 589.546 75.361C589.81 71.7106 589.942 65.4543 589.942 56.5922V48.8736C589.942 47.2023 589.359 46.2128 588.194 45.9049C587.402 45.663 586.336 45.4871 584.994 45.3771C584.84 44.7174 584.763 44.2226 584.763 43.8928C584.763 43.5409 584.774 43.2661 584.796 43.0682C587.963 41.2869 591.877 40.3963 596.539 40.3963C597.309 40.3963 597.88 40.4073 598.254 40.4293C598.892 41.5288 599.266 42.6723 599.376 43.8598C599.508 45.0473 599.607 46.1798 599.673 47.2573C602.619 43.6729 605.104 41.4958 607.127 40.7262C608.095 40.3523 609.117 40.1654 610.195 40.1654C612.394 40.1654 614.153 40.7812 615.473 42.0126C616.814 43.2221 617.485 45.0033 617.485 47.3563C617.485 49.1595 616.825 50.6658 615.506 51.8753C614.208 53.0628 612.636 53.6565 610.789 53.6565C610.393 53.6565 609.997 53.6235 609.601 53.5576V53.1617Z" fill="url(#paint21_linear_24_271)"/>
<defs>
<linearGradient id="paint0_linear_24_271" x1="20.407" y1="42.5735" x2="31.6661" y2="79.1655" gradientUnits="userSpaceOnUse">
<stop stop-color="#897BB1"/>
<stop offset="1" stop-color="#262FA5"/>
</linearGradient>
<linearGradient id="paint1_linear_24_271" x1="28.1475" y1="81.2764" x2="17.5921" y2="72.1284" gradientUnits="userSpaceOnUse">
<stop stop-color="#262FA5"/>
<stop offset="1" stop-color="#5755AB"/>
</linearGradient>
<linearGradient id="paint2_linear_24_271" x1="15.1294" y1="42.5733" x2="11.9628" y2="59.8137" gradientUnits="userSpaceOnUse">
<stop stop-color="#897BB1"/>
<stop offset="1" stop-color="#5755AB"/>
</linearGradient>
<linearGradient id="paint3_linear_24_271" x1="65.4433" y1="17.2407" x2="14.7774" y2="60.8695" gradientUnits="userSpaceOnUse">
<stop stop-color="#897BB1"/>
<stop offset="1" stop-color="#5755AB"/>
</linearGradient>
<linearGradient id="paint4_linear_24_271" x1="46.4437" y1="75.2949" x2="40.8141" y2="81.98" gradientUnits="userSpaceOnUse">
<stop stop-color="#4849A9"/>
<stop offset="1" stop-color="#262FA5"/>
</linearGradient>
<linearGradient id="paint5_linear_24_271" x1="68.6099" y1="71.7765" x2="72.4802" y2="81.6282" gradientUnits="userSpaceOnUse">
<stop stop-color="#4E4EAA"/>
<stop offset="1" stop-color="#262FA5"/>
</linearGradient>
<linearGradient id="paint6_linear_24_271" x1="18.2959" y1="65.4433" x2="34.8326" y2="64.3878" gradientUnits="userSpaceOnUse">
<stop stop-color="#5755AB"/>
<stop stop-color="#5755AB"/>
<stop offset="1" stop-color="#605BAC"/>
</linearGradient>
<linearGradient id="paint7_linear_24_271" x1="323.366" y1="8.44433" x2="323.366" y2="99.2205" gradientUnits="userSpaceOnUse">
<stop offset="0.390625" stop-color="#897BB1"/>
<stop offset="1" stop-color="#1221A3"/>
</linearGradient>
<linearGradient id="paint8_linear_24_271" x1="323.366" y1="8.44433" x2="323.366" y2="99.2205" gradientUnits="userSpaceOnUse">
<stop offset="0.390625" stop-color="#897BB1"/>
<stop offset="1" stop-color="#1221A3"/>
</linearGradient>
<linearGradient id="paint9_linear_24_271" x1="323.366" y1="8.44433" x2="323.366" y2="99.2205" gradientUnits="userSpaceOnUse">
<stop offset="0.390625" stop-color="#897BB1"/>
<stop offset="1" stop-color="#1221A3"/>
</linearGradient>
<linearGradient id="paint10_linear_24_271" x1="323.366" y1="8.44433" x2="323.366" y2="99.2205" gradientUnits="userSpaceOnUse">
<stop offset="0.390625" stop-color="#897BB1"/>
<stop offset="1" stop-color="#1221A3"/>
</linearGradient>
<linearGradient id="paint11_linear_24_271" x1="323.366" y1="8.44433" x2="323.366" y2="99.2205" gradientUnits="userSpaceOnUse">
<stop offset="0.390625" stop-color="#897BB1"/>
<stop offset="1" stop-color="#1221A3"/>
</linearGradient>
<linearGradient id="paint12_linear_24_271" x1="323.366" y1="8.44433" x2="323.366" y2="99.2205" gradientUnits="userSpaceOnUse">
<stop offset="0.390625" stop-color="#897BB1"/>
<stop offset="1" stop-color="#1221A3"/>
</linearGradient>
<linearGradient id="paint13_linear_24_271" x1="323.366" y1="8.44433" x2="323.366" y2="99.2205" gradientUnits="userSpaceOnUse">
<stop offset="0.390625" stop-color="#897BB1"/>
<stop offset="1" stop-color="#1221A3"/>
</linearGradient>
<linearGradient id="paint14_linear_24_271" x1="323.366" y1="8.44433" x2="323.366" y2="99.2205" gradientUnits="userSpaceOnUse">
<stop offset="0.390625" stop-color="#897BB1"/>
<stop offset="1" stop-color="#1221A3"/>
</linearGradient>
<linearGradient id="paint15_linear_24_271" x1="323.366" y1="8.44433" x2="323.366" y2="99.2205" gradientUnits="userSpaceOnUse">
<stop offset="0.390625" stop-color="#897BB1"/>
<stop offset="1" stop-color="#1221A3"/>
</linearGradient>
<linearGradient id="paint16_linear_24_271" x1="323.366" y1="8.44433" x2="323.366" y2="99.2205" gradientUnits="userSpaceOnUse">
<stop offset="0.390625" stop-color="#897BB1"/>
<stop offset="1" stop-color="#1221A3"/>
</linearGradient>
<linearGradient id="paint17_linear_24_271" x1="323.366" y1="8.44433" x2="323.366" y2="99.2205" gradientUnits="userSpaceOnUse">
<stop offset="0.390625" stop-color="#897BB1"/>
<stop offset="1" stop-color="#1221A3"/>
</linearGradient>
<linearGradient id="paint18_linear_24_271" x1="323.366" y1="8.44433" x2="323.366" y2="99.2205" gradientUnits="userSpaceOnUse">
<stop offset="0.390625" stop-color="#897BB1"/>
<stop offset="1" stop-color="#1221A3"/>
</linearGradient>
<linearGradient id="paint19_linear_24_271" x1="323.366" y1="8.44433" x2="323.366" y2="99.2205" gradientUnits="userSpaceOnUse">
<stop offset="0.390625" stop-color="#897BB1"/>
<stop offset="1" stop-color="#1221A3"/>
</linearGradient>
<linearGradient id="paint20_linear_24_271" x1="323.366" y1="8.44433" x2="323.366" y2="99.2205" gradientUnits="userSpaceOnUse">
<stop offset="0.390625" stop-color="#897BB1"/>
<stop offset="1" stop-color="#1221A3"/>
</linearGradient>
<linearGradient id="paint21_linear_24_271" x1="323.366" y1="8.44433" x2="323.366" y2="99.2205" gradientUnits="userSpaceOnUse">
<stop offset="0.390625" stop-color="#897BB1"/>
<stop offset="1" stop-color="#1221A3"/>
</linearGradient>
</defs>
</svg>
